<svg width="54" height="46" viewBox="0 0 54 46" fill="none" xmlns="http://www.w3.org/2000/svg">
<path d="M51.8889 17.5271H47.3556L32.7778 1.26047C32.6202 1.08538 32.4297 0.943035 32.2171 0.841573C32.0045 0.740111 31.774 0.681517 31.5387 0.669136C31.3035 0.656755 31.0681 0.690829 30.846 0.769414C30.624 0.847998 30.4196 0.969554 30.2445 1.12714C30.0694 1.28473 29.927 1.47526 29.8256 1.68785C29.7241 1.90045 29.6655 2.13095 29.6531 2.36619C29.6407 2.60143 29.6748 2.83681 29.7534 3.05888C29.832 3.28096 29.9535 3.48538 30.1111 3.66047L42.5556 17.616H11.4445L23.8889 3.66047C24.0465 3.48538 24.168 3.28096 24.2466 3.05888C24.3252 2.83681 24.3593 2.60143 24.3469 2.36619C24.3345 2.13095 24.2759 1.90045 24.1745 1.68785C24.073 1.47526 23.9307 1.28473 23.7556 1.12714C23.5805 0.969554 23.3761 0.847998 23.154 0.769414C22.9319 0.690829 22.6965 0.656755 22.4613 0.669136C22.226 0.681517 21.9955 0.740111 21.7829 0.841573C21.5704 0.943035 21.3798 1.08538 21.2222 1.26047L6.73334 17.5271H2.11112C1.63963 17.5271 1.18744 17.7144 0.854043 18.0478C0.520645 18.3812 0.333344 18.8334 0.333344 19.3049C0.333344 19.7764 0.520645 20.2286 0.854043 20.562C1.18744 20.8954 1.63963 21.0827 2.11112 21.0827H51.8889C52.3604 21.0827 52.8126 20.8954 53.146 20.562C53.4794 20.2286 53.6667 19.7764 53.6667 19.3049C53.6667 18.8334 53.4794 18.3812 53.146 18.0478C52.8126 17.7144 52.3604 17.5271 51.8889 17.5271Z" fill="#333333"/>
<path d="M9.22206 45.9716H44.7776L49.0443 24.6383H5.04428L9.22206 45.9716Z" fill="#333333"/>
</svg>
